<svg width="22" height="22" viewBox="0 0 22 22" fill="none" xmlns="http://www.w3.org/2000/svg">
<g id="Swap me">
<path id="Vector" d="M18.4433 3.55666C17.9281 3.04079 17.2291 2.75064 16.5 2.74999H15.5833C15.5833 2.50688 15.4868 2.27372 15.3148 2.10181C15.1429 1.92991 14.9098 1.83333 14.6667 1.83333C14.4236 1.83333 14.1904 1.92991 14.0185 2.10181C13.8466 2.27372 13.75 2.50688 13.75 2.74999H8.25C8.25 2.50688 8.15342 2.27372 7.98151 2.10181C7.80961 1.92991 7.57645 1.83333 7.33333 1.83333C7.09022 1.83333 6.85706 1.92991 6.68515 2.10181C6.51324 2.27372 6.41667 2.50688 6.41667 2.74999H5.5C4.77065 2.74999 4.07118 3.03973 3.55546 3.55545C3.03973 4.07118 2.75 4.77065 2.75 5.49999V16.5C2.75 17.2293 3.03973 17.9288 3.55546 18.4445C4.07118 18.9603 4.77065 19.25 5.5 19.25H16.5C17.2293 19.25 17.9288 18.9603 18.4445 18.4445C18.9603 17.9288 19.25 17.2293 19.25 16.5V5.49999C19.2494 4.7709 18.9592 4.07189 18.4433 3.55666ZM7.33333 15.5833C7.15203 15.5833 6.97481 15.5296 6.82406 15.4288C6.67332 15.3281 6.55582 15.185 6.48644 15.0175C6.41706 14.85 6.39891 14.6656 6.43428 14.4878C6.46965 14.31 6.55695 14.1467 6.68515 14.0185C6.81335 13.8903 6.97668 13.803 7.1545 13.7676C7.33232 13.7322 7.51663 13.7504 7.68413 13.8198C7.85163 13.8892 7.99479 14.0066 8.09551 14.1574C8.19624 14.3081 8.25 14.4854 8.25 14.6667C8.25 14.9098 8.15342 15.1429 7.98151 15.3148C7.80961 15.4868 7.57645 15.5833 7.33333 15.5833ZM7.33333 11.9167C7.15203 11.9167 6.97481 11.8629 6.82406 11.7622C6.67332 11.6615 6.55582 11.5183 6.48644 11.3508C6.41706 11.1833 6.39891 10.999 6.43428 10.8212C6.46965 10.6433 6.55695 10.48 6.68515 10.3518C6.81335 10.2236 6.97668 10.1363 7.1545 10.1009C7.33232 10.0656 7.51663 10.0837 7.68413 10.1531C7.85163 10.2225 7.99479 10.34 8.09551 10.4907C8.19624 10.6415 8.25 10.8187 8.25 11C8.25 11.2431 8.15342 11.4763 7.98151 11.6482C7.80961 11.8201 7.57645 11.9167 7.33333 11.9167ZM11 15.5833C10.8187 15.5833 10.6415 15.5296 10.4907 15.4288C10.34 15.3281 10.2225 15.185 10.1531 15.0175C10.0837 14.85 10.0656 14.6656 10.1009 14.4878C10.1363 14.31 10.2236 14.1467 10.3518 14.0185C10.48 13.8903 10.6434 13.803 10.8212 13.7676C10.999 13.7322 11.1833 13.7504 11.3508 13.8198C11.5183 13.8892 11.6615 14.0066 11.7622 14.1574C11.8629 14.3081 11.9167 14.4854 11.9167 14.6667C11.9167 14.9098 11.8201 15.1429 11.6482 15.3148C11.4763 15.4868 11.2431 15.5833 11 15.5833ZM11 11.9167C10.8187 11.9167 10.6415 11.8629 10.4907 11.7622C10.34 11.6615 10.2225 11.5183 10.1531 11.3508C10.0837 11.1833 10.0656 10.999 10.1009 10.8212C10.1363 10.6433 10.2236 10.48 10.3518 10.3518C10.48 10.2236 10.6434 10.1363 10.8212 10.1009C10.999 10.0656 11.1833 10.0837 11.3508 10.1531C11.5183 10.2225 11.6615 10.34 11.7622 10.4907C11.8629 10.6415 11.9167 10.8187 11.9167 11C11.9167 11.2431 11.8201 11.4763 11.6482 11.6482C11.4763 11.8201 11.2431 11.9167 11 11.9167ZM14.6667 11.9167C14.4854 11.9167 14.3081 11.8629 14.1574 11.7622C14.0066 11.6615 13.8892 11.5183 13.8198 11.3508C13.7504 11.1833 13.7322 10.999 13.7676 10.8212C13.803 10.6433 13.8903 10.48 14.0185 10.3518C14.1467 10.2236 14.31 10.1363 14.4878 10.1009C14.6657 10.0656 14.85 10.0837 15.0175 10.1531C15.185 10.2225 15.3281 10.34 15.4288 10.4907C15.5296 10.6415 15.5833 10.8187 15.5833 11C15.5833 11.2431 15.4868 11.4763 15.3148 11.6482C15.1429 11.8201 14.9098 11.9167 14.6667 11.9167ZM17.4167 6.41666H4.58333V5.49999C4.58333 5.25688 4.67991 5.02372 4.85182 4.85181C5.02373 4.67991 5.25688 4.58333 5.5 4.58333H6.41667C6.41667 4.82644 6.51324 5.0596 6.68515 5.23151C6.85706 5.40342 7.09022 5.49999 7.33333 5.49999C7.57645 5.49999 7.80961 5.40342 7.98151 5.23151C8.15342 5.0596 8.25 4.82644 8.25 4.58333H13.75C13.75 4.82644 13.8466 5.0596 14.0185 5.23151C14.1904 5.40342 14.4236 5.49999 14.6667 5.49999C14.9098 5.49999 15.1429 5.40342 15.3148 5.23151C15.4868 5.0596 15.5833 4.82644 15.5833 4.58333H16.5C16.7431 4.58333 16.9763 4.67991 17.1482 4.85181C17.3201 5.02372 17.4167 5.25688 17.4167 5.49999V6.41666Z" fill="white" fill-opacity="0.4"/>
</g>
</svg>
