<svg width="26" height="16" viewBox="0 0 26 16" fill="none" xmlns="http://www.w3.org/2000/svg">
<g id="Icon">
<path id="Vector" d="M15.5875 15.5H4.1375C3.17163 15.4967 2.24644 15.1107 1.56464 14.4265C0.882831 13.7424 0.499994 12.8159 0.5 11.85V4.15C0.5 3.18196 0.884552 2.25357 1.56906 1.56906C2.25357 0.884553 3.18196 0.5 4.15 0.5H15.6C16.0793 0.5 16.554 0.59441 16.9968 0.77784C17.4396 0.96127 17.842 1.23013 18.1809 1.56906C18.5199 1.90799 18.7887 2.31037 18.9722 2.75321C19.1556 3.19604 19.25 3.67068 19.25 4.15V11.85C19.2434 12.8182 18.855 13.7446 18.1693 14.4281C17.4835 15.1115 16.5557 15.4967 15.5875 15.5Z" fill="white"/>
<path id="Vector_2" d="M13 8.00042L23.6875 13.3504C23.8787 13.4468 24.0915 13.4924 24.3055 13.4829C24.5194 13.4734 24.7273 13.4091 24.9092 13.2962C25.0912 13.1833 25.2411 13.0255 25.3445 12.838C25.448 12.6505 25.5015 12.4396 25.5 12.2254V3.77542C25.5015 3.56129 25.448 3.35035 25.3445 3.16285C25.2411 2.97535 25.0912 2.81757 24.9092 2.70464C24.7273 2.59171 24.5194 2.52742 24.3055 2.51792C24.0915 2.50843 23.8787 2.55405 23.6875 2.65042L13 8.00042Z" fill="white"/>
</g>
</svg>
