<svg width="16" height="16" viewBox="0 0 16 16" fill="none" xmlns="http://www.w3.org/2000/svg">
<g id="Swap me">
<path id="Vector" d="M10 2.66667H6C4.82644 2.67571 3.69938 3.12659 2.8434 3.92946C1.98741 4.73233 1.46536 5.82824 1.38127 6.99881C1.29717 8.16938 1.65722 9.32866 2.38965 10.2456C3.12208 11.1626 4.17312 11.77 5.33333 11.9467V13.3333C5.33333 13.519 5.38505 13.7011 5.48268 13.8591C5.58031 14.017 5.72001 14.1447 5.88612 14.2278C6.05222 14.3108 6.23817 14.346 6.42314 14.3293C6.6081 14.3126 6.78476 14.2448 6.93333 14.1333L9.78 12H10C11.2377 12 12.4247 11.5083 13.2998 10.6332C14.175 9.758 14.6667 8.57101 14.6667 7.33334C14.6667 6.09566 14.175 4.90868 13.2998 4.03351C12.4247 3.15834 11.2377 2.66667 10 2.66667ZM5.33333 8C5.20148 8 5.07258 7.96091 4.96295 7.88765C4.85332 7.8144 4.76787 7.71028 4.71741 7.58846C4.66695 7.46664 4.65375 7.3326 4.67947 7.20328C4.7052 7.07396 4.76869 6.95517 4.86193 6.86193C4.95516 6.7687 5.07395 6.7052 5.20327 6.67948C5.33259 6.65376 5.46664 6.66696 5.58845 6.71742C5.71027 6.76788 5.81439 6.85332 5.88764 6.96296C5.9609 7.07259 6 7.20148 6 7.33334C6 7.51015 5.92976 7.67972 5.80473 7.80474C5.67971 7.92977 5.51014 8 5.33333 8ZM8 8C7.86814 8 7.73925 7.96091 7.62962 7.88765C7.51998 7.8144 7.43454 7.71028 7.38408 7.58846C7.33362 7.46664 7.32042 7.3326 7.34614 7.20328C7.37186 7.07396 7.43536 6.95517 7.52859 6.86193C7.62183 6.7687 7.74062 6.7052 7.86994 6.67948C7.99926 6.65376 8.1333 6.66696 8.25512 6.71742C8.37694 6.76788 8.48106 6.85332 8.55431 6.96296C8.62756 7.07259 8.66666 7.20148 8.66666 7.33334C8.66666 7.51015 8.59643 7.67972 8.4714 7.80474C8.34638 7.92977 8.17681 8 8 8ZM10.6667 8C10.5348 8 10.4059 7.96091 10.2963 7.88765C10.1867 7.8144 10.1012 7.71028 10.0507 7.58846C10.0003 7.46664 9.98708 7.3326 10.0128 7.20328C10.0385 7.07396 10.102 6.95517 10.1953 6.86193C10.2885 6.7687 10.4073 6.7052 10.5366 6.67948C10.6659 6.65376 10.8 6.66696 10.9218 6.71742C11.0436 6.76788 11.1477 6.85332 11.221 6.96296C11.2942 7.07259 11.3333 7.20148 11.3333 7.33334C11.3333 7.51015 11.2631 7.67972 11.1381 7.80474C11.013 7.92977 10.8435 8 10.6667 8Z" fill="white" fill-opacity="0.78"/>
</g>
</svg>
