<svg width="22" height="22" viewBox="0 0 22 22" fill="none" xmlns="http://www.w3.org/2000/svg">
<g id="Swap me">
<path id="Vector" d="M16.6466 13.1267C16.3032 12.7852 15.8385 12.5935 15.3541 12.5935C14.8698 12.5935 14.4051 12.7852 14.0616 13.1267L13.4108 13.7775C13.3256 13.8634 13.2242 13.9316 13.1125 13.9781C13.0008 14.0247 12.881 14.0486 12.76 14.0486C12.639 14.0486 12.5192 14.0247 12.4075 13.9781C12.2957 13.9316 12.1944 13.8634 12.1091 13.7775L8.24998 9.89083C8.16406 9.80561 8.09587 9.70423 8.04933 9.59252C8.00279 9.48082 7.97883 9.36101 7.97883 9.23999C7.97883 9.11898 8.00279 8.99917 8.04933 8.88747C8.09587 8.77576 8.16406 8.67438 8.24998 8.58916L8.90082 7.93833C9.24228 7.59483 9.43393 7.13017 9.43393 6.64583C9.43393 6.16149 9.24228 5.69683 8.90082 5.35333L8.24998 4.70249C8.07971 4.53204 7.87752 4.39681 7.65496 4.30455C7.43239 4.21229 7.19383 4.1648 6.9529 4.1648C6.71197 4.1648 6.4734 4.21229 6.25084 4.30455C6.02828 4.39681 5.82608 4.53204 5.65582 4.70249L4.73915 5.61916C4.45112 5.89413 4.2666 6.25993 4.21665 6.65499C4.05165 7.93833 4.14332 11 7.58082 14.4192C11.0183 17.8383 14.0616 17.9483 15.3541 17.7925C15.7492 17.7425 16.115 17.558 16.39 17.27L17.3066 16.3533C17.4771 16.1831 17.6123 15.9809 17.7046 15.7583C17.7969 15.5357 17.8443 15.2972 17.8443 15.0562C17.8443 14.8153 17.7969 14.5768 17.7046 14.3542C17.6123 14.1316 17.4771 13.9294 17.3066 13.7592L16.6466 13.1267ZM12.5308 8.35083C12.7889 8.44195 13.0233 8.58968 13.2168 8.7832C13.4103 8.97672 13.558 9.2111 13.6491 9.46916C13.7117 9.64804 13.8281 9.80314 13.9824 9.91313C14.1367 10.0231 14.3213 10.0826 14.5108 10.0833C14.614 10.0822 14.7163 10.0636 14.8133 10.0283C15.0413 9.94734 15.228 9.77951 15.3327 9.56144C15.4375 9.34336 15.4518 9.09273 15.3725 8.86416C15.1938 8.34608 14.8995 7.87546 14.512 7.48795C14.1245 7.10043 13.6539 6.80618 13.1358 6.62749C12.9136 6.57054 12.6782 6.59896 12.4759 6.70714C12.2736 6.81532 12.1193 6.99539 12.0433 7.21182C11.9673 7.42824 11.9752 7.66528 12.0655 7.87615C12.1558 8.08702 12.3218 8.25639 12.5308 8.35083ZM12.9891 3.76749C12.746 3.72738 12.4969 3.78549 12.2967 3.92903C12.0964 4.07257 11.9613 4.2898 11.9212 4.53291C11.8811 4.77603 11.9392 5.02512 12.0828 5.22539C12.2263 5.42567 12.4435 5.56071 12.6866 5.60083C13.6243 5.76079 14.489 6.20852 15.1607 6.88194C15.8325 7.55537 16.2781 8.42112 16.4358 9.35916C16.4729 9.57439 16.5857 9.7693 16.7537 9.90878C16.9218 10.0483 17.1341 10.1232 17.3525 10.12H17.4991C17.6186 10.1 17.7328 10.0566 17.8354 9.99226C17.9379 9.9279 18.0267 9.84386 18.0966 9.74499C18.1665 9.64613 18.2161 9.5344 18.2426 9.41625C18.269 9.29811 18.2718 9.17589 18.2508 9.05666C18.0363 7.73493 17.4136 6.51343 16.47 5.56331C15.5265 4.61319 14.3094 3.98205 12.9891 3.75833V3.76749Z" fill="white" fill-opacity="0.4"/>
</g>
</svg>
