<svg width="22" height="22" viewBox="0 0 22 22" fill="none" xmlns="http://www.w3.org/2000/svg">
<g id="Swap me">
<path id="Vector" d="M6.41665 10.0833C6.62992 10.0797 6.84209 10.052 7.04915 10.0008C6.44787 9.24532 6.07707 8.33252 5.98115 7.37171C5.88523 6.41091 6.06826 5.44281 6.50832 4.58334H6.41665C5.68731 4.58334 4.98784 4.87307 4.47211 5.3888C3.95639 5.90452 3.66665 6.60399 3.66665 7.33334C3.66665 8.06269 3.95639 8.76216 4.47211 9.27788C4.98784 9.79361 5.68731 10.0833 6.41665 10.0833ZM11 10.0833C11.6345 10.0833 12.2548 9.89517 12.7824 9.54264C13.3101 9.1901 13.7213 8.68903 13.9641 8.10278C14.2069 7.51654 14.2705 6.87145 14.1467 6.24909C14.0229 5.62674 13.7173 5.05507 13.2686 4.60637C12.8199 4.15768 12.2483 3.85211 11.6259 3.72832C11.0035 3.60453 10.3585 3.66806 9.77221 3.91089C9.18597 4.15372 8.68489 4.56494 8.33236 5.09255C7.97982 5.62016 7.79165 6.24046 7.79165 6.87501C7.79165 7.72591 8.12967 8.54196 8.73135 9.14364C9.33303 9.74532 10.1491 10.0833 11 10.0833ZM15.5833 10.0833C16.3127 10.0833 17.0121 9.79361 17.5279 9.27788C18.0436 8.76216 18.3333 8.06269 18.3333 7.33334C18.3333 6.60399 18.0436 5.90452 17.5279 5.3888C17.0121 4.87307 16.3127 4.58334 15.5833 4.58334H15.4917C15.9298 5.44172 16.1118 6.40802 16.0159 7.36697C15.92 8.32593 15.5503 9.23705 14.9508 9.99167C15.1575 10.0459 15.3697 10.0767 15.5833 10.0833ZM11 11C9.5413 11 8.14235 11.5795 7.1109 12.6109C6.07945 13.6424 5.49999 15.0413 5.49999 16.5C5.49999 16.9862 5.69314 17.4526 6.03696 17.7964C6.38078 18.1402 6.84709 18.3333 7.33332 18.3333H14.6667C15.1529 18.3333 15.6192 18.1402 15.963 17.7964C16.3068 17.4526 16.5 16.9862 16.5 16.5C16.5 15.0413 15.9205 13.6424 14.8891 12.6109C13.8576 11.5795 12.4587 11 11 11ZM15.8675 11C16.6447 11.6897 17.2665 12.5368 17.6916 13.485C18.1167 14.4332 18.3354 15.4609 18.3333 16.5C18.3286 16.8097 18.2855 17.1176 18.205 17.4167H18.3333C18.8196 17.4167 19.2859 17.2235 19.6297 16.8797C19.9735 16.5359 20.1667 16.0696 20.1667 15.5833C20.1689 14.4154 19.7252 13.2907 18.9262 12.4389C18.1272 11.5871 17.0331 11.0724 15.8675 11ZM6.13249 11C4.96683 11.0724 3.87278 11.5871 3.07377 12.4389C2.27476 13.2907 1.83107 14.4154 1.83332 15.5833C1.83332 16.0696 2.02648 16.5359 2.37029 16.8797C2.71411 17.2235 3.18042 17.4167 3.66665 17.4167H3.79499C3.71451 17.1176 3.67141 16.8097 3.66665 16.5C3.66453 15.4609 3.88327 14.4332 4.30838 13.485C4.73349 12.5368 5.35526 11.6897 6.13249 11Z" fill="white" fill-opacity="0.4"/>
</g>
</svg>
