<svg width="16" height="16" viewBox="0 0 16 16" fill="none" xmlns="http://www.w3.org/2000/svg">
<g id="Swap me">
<path id="Vector" d="M7.37333 7.21319L6.96 7.62653C6.77303 7.81429 6.66763 8.06821 6.66667 8.33319V9.33319H7.66667C7.93165 9.33223 8.18557 9.22683 8.37333 9.03986L8.78667 8.62653L13.7067 3.70653C13.8049 3.61498 13.8837 3.50458 13.9384 3.38191C13.993 3.25924 14.0224 3.12683 14.0248 2.99256C14.0272 2.85829 14.0025 2.72491 13.9522 2.6004C13.9019 2.47588 13.827 2.36277 13.7321 2.26781C13.6371 2.17285 13.524 2.09799 13.3995 2.0477C13.2749 1.9974 13.1416 1.9727 13.0073 1.97507C12.873 1.97744 12.7406 2.00683 12.6179 2.06148C12.4953 2.11614 12.3849 2.19494 12.2933 2.29319L7.37333 7.21319ZM7.66667 10.6665H5.33333V8.33319C5.32855 8.02508 5.38502 7.71909 5.49946 7.43298C5.61391 7.14687 5.78405 6.88634 6 6.66653L10.6667 1.99986H4C3.46957 1.99986 2.96086 2.21057 2.58579 2.58565C2.21071 2.96072 2 3.46943 2 3.99986V11.9999C2 12.5303 2.21071 13.039 2.58579 13.4141C2.96086 13.7891 3.46957 13.9999 4 13.9999H12C12.5304 13.9999 13.0391 13.7891 13.4142 13.4141C13.7893 13.039 14 12.5303 14 11.9999V5.33319L9.33333 9.99986C9.11352 10.2158 8.85299 10.386 8.56688 10.5004C8.28077 10.6148 7.97478 10.6713 7.66667 10.6665Z" fill="#F5F5F5"/>
</g>
</svg>
