<svg width="16" height="16" viewBox="0 0 16 16" fill="none" xmlns="http://www.w3.org/2000/svg">
<g id="Swap me">
<path id="Vector" d="M11.3333 7.33331H4.66667C4.48986 7.33331 4.32029 7.40355 4.19526 7.52858C4.07024 7.6536 4 7.82317 4 7.99998C4 8.17679 4.07024 8.34636 4.19526 8.47138C4.32029 8.59641 4.48986 8.66665 4.66667 8.66665H11.3333C11.5101 8.66665 11.6797 8.59641 11.8047 8.47138C11.9298 8.34636 12 8.17679 12 7.99998C12 7.82317 11.9298 7.6536 11.8047 7.52858C11.6797 7.40355 11.5101 7.33331 11.3333 7.33331ZM9.33333 11.3333H6.66667C6.48986 11.3333 6.32029 11.4036 6.19526 11.5286C6.07024 11.6536 6 11.8232 6 12C6 12.1768 6.07024 12.3464 6.19526 12.4714C6.32029 12.5964 6.48986 12.6666 6.66667 12.6666H9.33333C9.51014 12.6666 9.67971 12.5964 9.80474 12.4714C9.92976 12.3464 10 12.1768 10 12C10 11.8232 9.92976 11.6536 9.80474 11.5286C9.67971 11.4036 9.51014 11.3333 9.33333 11.3333ZM13.3333 3.33331H2.66667C2.48986 3.33331 2.32029 3.40355 2.19526 3.52858C2.07024 3.6536 2 3.82317 2 3.99998C2 4.17679 2.07024 4.34636 2.19526 4.47138C2.32029 4.59641 2.48986 4.66665 2.66667 4.66665H13.3333C13.5101 4.66665 13.6797 4.59641 13.8047 4.47138C13.9298 4.34636 14 4.17679 14 3.99998C14 3.82317 13.9298 3.6536 13.8047 3.52858C13.6797 3.40355 13.5101 3.33331 13.3333 3.33331Z" fill="#F5F5F5"/>
</g>
</svg>
