<svg width="16" height="16" viewBox="0 0 16 16" fill="none" xmlns="http://www.w3.org/2000/svg">
<g id="Swap me">
<path id="Vector" d="M6.66663 7.33331C7.25998 7.33331 7.84 7.15737 8.33334 6.82772C8.82669 6.49808 9.21121 6.02954 9.43827 5.48136C9.66534 4.93319 9.72475 4.32999 9.60899 3.74804C9.49323 3.1661 9.20751 2.63155 8.78795 2.21199C8.3684 1.79244 7.83385 1.50671 7.25191 1.39096C6.66996 1.2752 6.06676 1.33461 5.51858 1.56168C4.97041 1.78874 4.50187 2.17326 4.17223 2.6666C3.84258 3.15995 3.66663 3.73997 3.66663 4.33331C3.6684 5.12842 3.98503 5.89046 4.54726 6.45269C5.10949 7.01492 5.87153 7.33155 6.66663 7.33331ZM12 7.99998C12.3955 7.99998 12.7822 7.88268 13.1111 7.66292C13.44 7.44316 13.6964 7.1308 13.8477 6.76535C13.9991 6.3999 14.0387 5.99776 13.9615 5.6098C13.8844 5.22184 13.6939 4.86547 13.4142 4.58577C13.1345 4.30606 12.7781 4.11558 12.3901 4.03841C12.0022 3.96124 11.6001 4.00085 11.2346 4.15222C10.8691 4.3036 10.5568 4.55994 10.337 4.88884C10.1173 5.21774 9.99997 5.60442 9.99997 5.99998C9.99997 6.53041 10.2107 7.03912 10.5858 7.4142C10.9608 7.78927 11.4695 7.99998 12 7.99998ZM12 8.66665C11.3449 8.66269 10.7113 8.9 10.22 9.33331C9.45094 8.64623 8.49921 8.19684 7.48002 8.03955C6.46083 7.88227 5.4179 8.02383 4.47752 8.44711C3.53714 8.87039 2.73964 9.55722 2.18159 10.4244C1.62354 11.2917 1.32889 12.3021 1.3333 13.3333C1.3333 13.6869 1.47378 14.0261 1.72383 14.2761C1.97387 14.5262 2.31301 14.6666 2.66663 14.6666H10.6666C11.0203 14.6666 11.3594 14.5262 11.6094 14.2761C11.8595 14.0261 12 13.6869 12 13.3333C11.9979 13.1104 11.9823 12.8877 11.9533 12.6666H13.3333C13.6869 12.6666 14.0261 12.5262 14.2761 12.2761C14.5262 12.0261 14.6666 11.6869 14.6666 11.3333C14.6666 10.6261 14.3857 9.94779 13.8856 9.4477C13.3855 8.9476 12.7072 8.66665 12 8.66665Z" fill="#24247D"/>
</g>
</svg>
