<svg width="24" height="24" viewBox="0 0 24 24" fill="none" xmlns="http://www.w3.org/2000/svg">
<g id="Swap me">
<path id="Vector" d="M15.7 2H10.3C9.30637 1.99981 8.3269 2.23539 7.44205 2.68738C6.5572 3.13936 5.79222 3.79486 5.20998 4.6C6.19256 4.20568 7.24123 4.00205 8.29998 4H13.7C15.5279 4.00544 17.3028 4.61412 18.7494 5.73158C20.1959 6.84903 21.2331 8.41274 21.7 10.18C21.8968 9.57267 21.998 8.93843 22 8.3C22 7.47267 21.837 6.65345 21.5204 5.88909C21.2038 5.12474 20.7398 4.43024 20.1548 3.84523C19.5697 3.26022 18.8752 2.79616 18.1109 2.47956C17.3465 2.16295 16.5273 2 15.7 2ZM13.7 6H8.29998C6.71346 6.00903 5.18877 6.61632 4.0305 7.70054C2.87224 8.78476 2.16569 10.2661 2.05203 11.8485C1.93836 13.431 2.42595 14.9981 3.41737 16.2367C4.40879 17.4754 5.83104 18.2943 7.39998 18.53V20.4C7.39998 20.6507 7.4698 20.8965 7.6016 21.1097C7.73341 21.323 7.922 21.4954 8.14624 21.6075C8.37048 21.7196 8.62152 21.7671 8.87122 21.7445C9.12092 21.722 9.35941 21.6304 9.55998 21.48L13.4 18.6H13.7C15.3708 18.6 16.9733 17.9363 18.1548 16.7548C19.3362 15.5733 20 13.9709 20 12.3C20 10.6291 19.3362 9.02671 18.1548 7.84523C16.9733 6.66375 15.3708 6 13.7 6ZM6.99998 13C6.8022 13 6.60886 12.9414 6.44441 12.8315C6.27996 12.7216 6.15179 12.5654 6.0761 12.3827C6.00041 12.2 5.98061 11.9989 6.0192 11.8049C6.05778 11.6109 6.15302 11.4327 6.29287 11.2929C6.43273 11.153 6.61091 11.0578 6.80489 11.0192C6.99887 10.9806 7.19994 11.0004 7.38266 11.0761C7.56539 11.1518 7.72157 11.28 7.83145 11.4444C7.94133 11.6089 7.99998 11.8022 7.99998 12C7.99998 12.2652 7.89462 12.5196 7.70709 12.7071C7.51955 12.8946 7.2652 13 6.99998 13ZM11 13C10.8022 13 10.6089 12.9414 10.4444 12.8315C10.28 12.7216 10.1518 12.5654 10.0761 12.3827C10.0004 12.2 9.98061 11.9989 10.0192 11.8049C10.0578 11.6109 10.153 11.4327 10.2929 11.2929C10.4327 11.153 10.6109 11.0578 10.8049 11.0192C10.9989 10.9806 11.1999 11.0004 11.3827 11.0761C11.5654 11.1518 11.7216 11.28 11.8315 11.4444C11.9413 11.6089 12 11.8022 12 12C12 12.2652 11.8946 12.5196 11.7071 12.7071C11.5196 12.8946 11.2652 13 11 13ZM15 13C14.8022 13 14.6089 12.9414 14.4444 12.8315C14.28 12.7216 14.1518 12.5654 14.0761 12.3827C14.0004 12.2 13.9806 11.9989 14.0192 11.8049C14.0578 11.6109 14.153 11.4327 14.2929 11.2929C14.4327 11.153 14.6109 11.0578 14.8049 11.0192C14.9989 10.9806 15.1999 11.0004 15.3827 11.0761C15.5654 11.1518 15.7216 11.28 15.8315 11.4444C15.9413 11.6089 16 11.8022 16 12C16 12.2652 15.8946 12.5196 15.7071 12.7071C15.5196 12.8946 15.2652 13 15 13Z" fill="#A7B1CB"/>
</g>
</svg>
