<svg width="24" height="25" viewBox="0 0 24 25" fill="none" xmlns="http://www.w3.org/2000/svg">
<g id="Hash">
<path id="Vector" d="M21 8.75001H16.4437L17.2378 4.38407C17.2697 4.18995 17.2241 3.99107 17.1107 3.83029C16.9974 3.66951 16.8254 3.55971 16.6318 3.52454C16.4383 3.48937 16.2386 3.53165 16.076 3.64228C15.9133 3.75291 15.8006 3.92302 15.7622 4.11595L14.9184 8.75001H10.4438L11.2378 4.38407C11.2697 4.18995 11.2241 3.99107 11.1107 3.83029C10.9974 3.66951 10.8254 3.55971 10.6318 3.52454C10.4383 3.48937 10.2386 3.53165 10.076 3.64228C9.91331 3.75291 9.80062 3.92302 9.76219 4.11595L8.91937 8.75001H4.5C4.30109 8.75001 4.11032 8.82903 3.96967 8.96968C3.82902 9.11033 3.75 9.3011 3.75 9.50001C3.75 9.69892 3.82902 9.88969 3.96967 10.0303C4.11032 10.171 4.30109 10.25 4.5 10.25H8.64656L7.82812 14.75H3C2.80109 14.75 2.61032 14.829 2.46967 14.9697C2.32902 15.1103 2.25 15.3011 2.25 15.5C2.25 15.6989 2.32902 15.8897 2.46967 16.0303C2.61032 16.171 2.80109 16.25 3 16.25H7.55625L6.76219 20.6159C6.72666 20.8116 6.77031 21.0134 6.88353 21.1769C6.99675 21.3404 7.17027 21.4522 7.36594 21.4878C7.41015 21.496 7.45503 21.5001 7.5 21.5C7.67548 21.4998 7.84532 21.438 7.97996 21.3255C8.11459 21.2129 8.20551 21.0567 8.23688 20.8841L9.08063 16.25H13.5563L12.7622 20.6159C12.7267 20.8116 12.7703 21.0134 12.8835 21.1769C12.9967 21.3404 13.1703 21.4522 13.3659 21.4878C13.4102 21.496 13.455 21.5001 13.5 21.5C13.6755 21.4998 13.8453 21.438 13.98 21.3255C14.1146 21.2129 14.2055 21.0567 14.2369 20.8841L15.0806 16.25H19.5C19.6989 16.25 19.8897 16.171 20.0303 16.0303C20.171 15.8897 20.25 15.6989 20.25 15.5C20.25 15.3011 20.171 15.1103 20.0303 14.9697C19.8897 14.829 19.6989 14.75 19.5 14.75H15.3534L16.1719 10.25H21C21.1989 10.25 21.3897 10.171 21.5303 10.0303C21.671 9.88969 21.75 9.69892 21.75 9.50001C21.75 9.3011 21.671 9.11033 21.5303 8.96968C21.3897 8.82903 21.1989 8.75001 21 8.75001ZM13.8281 14.75H9.35344L10.1719 10.25H14.6466L13.8281 14.75Z" fill="#A8B1CB"/>
</g>
</svg>
