<svg width="24" height="25" viewBox="0 0 24 25" fill="none" xmlns="http://www.w3.org/2000/svg">
<g id="Swap me">
<path id="Vector" fill-rule="evenodd" clip-rule="evenodd" d="M12 3.5C10.9 3.5 10 4.4 10 5.5C10 6.6 10.9 7.5 12 7.5C13.1 7.5 14 6.6 14 5.5C14 4.4 13.1 3.5 12 3.5ZM19 7.5C20.1 7.5 21 6.6 21 5.5C21 4.4 20.1 3.5 19 3.5C17.9 3.5 17 4.4 17 5.5C17 6.6 17.9 7.5 19 7.5ZM5 3.5C3.9 3.5 3 4.4 3 5.5C3 6.6 3.9 7.5 5 7.5C6.1 7.5 7 6.6 7 5.5C7 4.4 6.1 3.5 5 3.5ZM12 10.5C10.9 10.5 10 11.4 10 12.5C10 13.6 10.9 14.5 12 14.5C13.1 14.5 14 13.6 14 12.5C14 11.4 13.1 10.5 12 10.5ZM19 10.5C17.9 10.5 17 11.4 17 12.5C17 13.6 17.9 14.5 19 14.5C20.1 14.5 21 13.6 21 12.5C21 11.4 20.1 10.5 19 10.5ZM5 10.5C3.9 10.5 3 11.4 3 12.5C3 13.6 3.9 14.5 5 14.5C6.1 14.5 7 13.6 7 12.5C7 11.4 6.1 10.5 5 10.5ZM12 17.5C10.9 17.5 10 18.4 10 19.5C10 20.6 10.9 21.5 12 21.5C13.1 21.5 14 20.6 14 19.5C14 18.4 13.1 17.5 12 17.5ZM19 17.5C17.9 17.5 17 18.4 17 19.5C17 20.6 17.9 21.5 19 21.5C20.1 21.5 21 20.6 21 19.5C21 18.4 20.1 17.5 19 17.5ZM5 17.5C3.9 17.5 3 18.4 3 19.5C3 20.6 3.9 21.5 5 21.5C6.1 21.5 7 20.6 7 19.5C7 18.4 6.1 17.5 5 17.5Z" fill="#A8B1CB"/>
</g>
</svg>
