<svg width="24" height="24" viewBox="0 0 24 24" fill="none" xmlns="http://www.w3.org/2000/svg">
<g id="Swap me">
<path id="Vector" d="M18.16 14.32C17.7853 13.9475 17.2784 13.7384 16.75 13.7384C16.2216 13.7384 15.7147 13.9475 15.34 14.32L14.63 15.03C14.537 15.1237 14.4264 15.1981 14.3046 15.2489C14.1827 15.2996 14.052 15.3258 13.92 15.3258C13.788 15.3258 13.6573 15.2996 13.5354 15.2489C13.4136 15.1981 13.303 15.1237 13.21 15.03L9 10.79C8.90627 10.697 8.83187 10.5864 8.78111 10.4645C8.73034 10.3427 8.7042 10.212 8.7042 10.08C8.7042 9.94795 8.73034 9.81724 8.78111 9.69538C8.83187 9.57352 8.90627 9.46292 9 9.36996L9.71 8.65996C10.0825 8.28524 10.2916 7.77833 10.2916 7.24996C10.2916 6.72159 10.0825 6.21469 9.71 5.83996L9 5.12996C8.81425 4.94401 8.59367 4.79649 8.35088 4.69584C8.10808 4.59519 7.84783 4.54339 7.585 4.54339C7.32217 4.54339 7.06191 4.59519 6.81912 4.69584C6.57632 4.79649 6.35574 4.94401 6.17 5.12996L5.17 6.12996C4.85578 6.42993 4.65449 6.82898 4.6 7.25996C4.42 8.65996 4.52 12 8.27 15.73C12.02 19.46 15.34 19.58 16.75 19.41C17.181 19.3555 17.58 19.1542 17.88 18.84L18.88 17.84C19.0659 17.6542 19.2135 17.4336 19.3141 17.1908C19.4148 16.948 19.4666 16.6878 19.4666 16.425C19.4666 16.1621 19.4148 15.9019 19.3141 15.6591C19.2135 15.4163 19.0659 15.1957 18.88 15.01L18.16 14.32ZM13.67 9.10996C13.9515 9.20936 14.2072 9.37053 14.4183 9.58164C14.6294 9.79275 14.7906 10.0484 14.89 10.33C14.9582 10.5251 15.0852 10.6943 15.2536 10.8143C15.4219 10.9343 15.6233 10.9991 15.83 11C15.9426 10.9987 16.0542 10.9784 16.16 10.94C16.4087 10.8516 16.6124 10.6685 16.7266 10.4306C16.8409 10.1927 16.8565 9.9193 16.77 9.66996C16.5751 9.10478 16.2541 8.59138 15.8313 8.16864C15.4086 7.74589 14.8952 7.4249 14.33 7.22996C14.0876 7.16783 13.8307 7.19884 13.6101 7.31685C13.3894 7.43486 13.2211 7.6313 13.1382 7.8674C13.0553 8.1035 13.0639 8.36209 13.1624 8.59213C13.2608 8.82217 13.442 9.00694 13.67 9.10996ZM14.17 4.10996C13.9048 4.0662 13.633 4.12959 13.4146 4.28618C13.1961 4.44277 13.0488 4.67974 13.005 4.94496C12.9612 5.21018 13.0246 5.48192 13.1812 5.70039C13.3378 5.91887 13.5748 6.0662 13.84 6.10996C14.8629 6.28446 15.8062 6.7729 16.539 7.50754C17.2719 8.24218 17.758 9.18664 17.93 10.21C17.9705 10.4448 18.0935 10.6574 18.2768 10.8095C18.4601 10.9617 18.6918 11.0434 18.93 11.04H19.09C19.2203 11.0182 19.3449 10.9708 19.4568 10.9006C19.5687 10.8304 19.6655 10.7387 19.7418 10.6309C19.818 10.523 19.8721 10.4011 19.901 10.2722C19.9299 10.1434 19.9329 10.01 19.91 9.87996C19.6759 8.43807 18.9967 7.10553 17.9673 6.06903C16.938 5.03254 15.6102 4.34402 14.17 4.09996V4.10996Z" fill="#A8B1CB"/>
</g>
</svg>
