<svg width="16" height="16" viewBox="0 0 16 16" fill="none" xmlns="http://www.w3.org/2000/svg">
<g id="Swap me">
<path id="Vector" d="M13.66 12.6667L10.22 9.23335L12.7467 6.70668C12.8864 6.56683 12.9815 6.38873 13.02 6.19486C13.0585 6.001 13.0387 5.80007 12.9631 5.61745C12.8874 5.43483 12.7594 5.27872 12.5951 5.16882C12.4308 5.05893 12.2377 5.00019 12.04 5.00001H8.79335L5.49335 1.72668C5.36952 1.60271 5.22247 1.50437 5.0606 1.43727C4.89874 1.37017 4.72524 1.33563 4.55001 1.33563C4.37479 1.33563 4.20129 1.37017 4.03943 1.43727C3.87756 1.50437 3.73051 1.60271 3.60668 1.72668L1.72668 3.60668C1.60271 3.73051 1.50437 3.87756 1.43727 4.03943C1.37017 4.20129 1.33563 4.37479 1.33563 4.55001C1.33563 4.72524 1.37017 4.89874 1.43727 5.0606C1.50437 5.22247 1.60271 5.36952 1.72668 5.49335L5.06001 8.79335V12.04C5.06019 12.2377 5.11893 12.4308 5.22882 12.5951C5.33872 12.7594 5.49483 12.8874 5.67745 12.9631C5.86007 13.0387 6.061 13.0585 6.25486 13.02C6.44873 12.9815 6.62683 12.8864 6.76668 12.7467L9.29335 10.22L12.6667 13.66C12.7984 13.7917 12.9771 13.8657 13.1633 13.8657C13.3496 13.8657 13.5283 13.7917 13.66 13.66C13.7917 13.5283 13.8657 13.3496 13.8657 13.1633C13.8657 12.9771 13.7917 12.7984 13.66 12.6667Z" fill="white" fill-opacity="0.78"/>
</g>
</svg>
