<svg width="24" height="24" viewBox="0 0 24 24" fill="none" xmlns="http://www.w3.org/2000/svg">
<g id="Swap me">
<path id="Vector" d="M12.29 10.29C11.9 10.68 11.9 11.31 12.29 11.7C13.16 12.57 13.29 13.86 12.59 14.57L9.51996 17.64C9.19996 17.97 8.73996 18.12 8.21996 18.09C7.64996 18.05 7.09996 17.79 6.65996 17.34C6.21996 16.9 5.94996 16.34 5.91996 15.78C5.87996 15.26 6.03996 14.8 6.36996 14.48L7.64996 13.2C8.03996 12.81 8.03996 12.18 7.64996 11.79C7.25996 11.4 6.62996 11.4 6.23996 11.79L4.95996 13.07C4.21996 13.81 3.85996 14.82 3.92996 15.92C3.99996 16.97 4.46996 17.98 5.25996 18.76C6.03996 19.54 7.04996 20.01 8.09996 20.09C8.19996 20.09 8.28996 20.09 8.38996 20.09C9.37996 20.09 10.28 19.73 10.96 19.05L14.03 15.98C15.52 14.49 15.38 11.94 13.73 10.28C13.34 9.89002 12.71 9.89002 12.32 10.28L12.29 10.29ZM18.76 5.24002C17.98 4.46002 16.97 3.99002 15.92 3.91002C14.82 3.83002 13.8 4.20002 13.07 4.94002L9.99996 8.01002C9.25996 8.75002 8.89996 9.76002 8.96996 10.86C9.03996 11.91 9.50996 12.92 10.3 13.7C10.5 13.9 10.75 13.99 11.01 13.99C11.27 13.99 11.52 13.89 11.72 13.7C12.11 13.31 12.11 12.68 11.72 12.29C11.28 11.85 11.01 11.29 10.98 10.73C10.94 10.21 11.1 9.75002 11.43 9.43002L14.5 6.36002C14.83 6.03002 15.29 5.88002 15.8 5.91002C16.37 5.95002 16.92 6.21002 17.36 6.66002C17.8 7.10002 18.07 7.66002 18.1 8.22002C18.14 8.74002 17.98 9.20002 17.65 9.52002L16.37 10.8C15.98 11.19 15.98 11.82 16.37 12.21C16.76 12.6 17.39 12.6 17.78 12.21L19.06 10.93C19.8 10.19 20.16 9.18002 20.09 8.08002C20.02 7.03002 19.55 6.02002 18.76 5.24002Z" fill="#2B2B2B"/>
</g>
</svg>
